<svg xmlns="http://www.w3.org/2000/svg" viewBox="0 0 300 150" width="300" height="150"><path fill="#666" d="M0 75.26a26.31 26.31 0 0 1 2-10.6 21.89 21.89 0 0 1 5.21-7.52 21.5 21.5 0 0 1 7.47-4.48 25.69 25.69 0 0 1 8.65-1.5q10.32 0 15.83 5.76t5.51 17.55v1.37a11.91 11.91 0 0 1-.1 1.53h-35q.59 7.13 4.62 10.82t12.58 3.7a37.18 37.18 0 0 0 8.11-.75 32 32 0 0 0 5-1.45l1.28 6.86a29.85 29.85 0 0 1-5.85 1.67 46.8 46.8 0 0 1-9.49.88 33 33 0 0 1-11.55-1.81 21.72 21.72 0 0 1-8-5 20 20 0 0 1-4.67-7.52A28.94 28.94 0 0 1 0 75.26zm35-3.82a12.77 12.77 0 0 0-3.09-9.1 11.23 11.23 0 0 0-8.8-3.57 13.33 13.33 0 0 0-5.56 1.1 12.68 12.68 0 0 0-6.68 6.91 17.65 17.65 0 0 0-1.23 4.66zm16.7-18.3c2.1-.47 4.86-1 8.3-1.5a79.3 79.3 0 0 1 11.94-.79A24.64 24.64 0 0 1 80.19 52a14.65 14.65 0 0 1 5.6 3.47q.69-.43 2.16-1.23a24.59 24.59 0 0 1 3.64-1.54 40.8 40.8 0 0 1 4.81-1.32 27.13 27.13 0 0 1 5.7-.57 25.47 25.47 0 0 1 9.63 1.54 13.61 13.61 0 0 1 5.84 4.35 15.92 15.92 0 0 1 2.85 6.69 45.25 45.25 0 0 1 .74 8.44v25.72h-8.24V73.63a46.17 46.17 0 0 0-.45-6.95 12.56 12.56 0 0 0-1.68-4.84 7.46 7.46 0 0 0-3.37-2.84 14 14 0 0 0-5.49-.92 22.8 22.8 0 0 0-7.68 1.1 15.6 15.6 0 0 0-4.11 2 26.84 26.84 0 0 1 1.19 5 40.44 40.44 0 0 1 .4 5.72v25.65h-9.42V73.63a42 42 0 0 0-.5-6.95 12.91 12.91 0 0 0-1.73-4.84A7.46 7.46 0 0 0 76.71 59a13.7 13.7 0 0 0-5.39-.92q-1.39 0-3 .09c-1.06.06-2.07.13-3 .22s-1.83.19-2.63.31-1.32.2-1.58.26v38.59H51.7zm86.85-8.78a6.23 6.23 0 0 1-4.17-1.45 4.84 4.84 0 0 1-1.72-3.91 4.83 4.83 0 0 1 1.72-3.91 6.7 6.7 0 0 1 8.35 0 4.83 4.83 0 0 1 1.72 3.91 4.84 4.84 0 0 1-1.72 3.91 6.24 6.24 0 0 1-4.18 1.45zm-4.44 8.09h9.42v46.29h-9.42zm30.6 0h18.84v7.12h-18.84v21.91a24 24 0 0 0 .61 5.89 8.51 8.51 0 0 0 1.82 3.63 6.6 6.6 0 0 0 3 1.87 14.73 14.73 0 0 0 4.26.55 22.28 22.28 0 0 0 6.83-.86c1.72-.58 2.92-1 3.6-1.24l1.82 7a37.31 37.31 0 0 1-5 1.6 31.14 31.14 0 0 1-8.1 1 27.11 27.11 0 0 1-8.87-1.23 13.09 13.09 0 0 1-5.62-3.7 14.18 14.18 0 0 1-3-6.07 35.94 35.94 0 0 1-.86-8.36V39.21l9.41-1.46zm40.03 0h18.84v7.12h-18.84v21.91a23.55 23.55 0 0 0 .61 5.89 8.4 8.4 0 0 0 1.82 3.63 6.5 6.5 0 0 0 3 1.87 14.61 14.61 0 0 0 4.25.55 22.31 22.31 0 0 0 6.84-.86c1.72-.58 2.92-1 3.59-1.24l1.82 7a36.31 36.31 0 0 1-5 1.6 31 31 0 0 1-8.1 1 27 27 0 0 1-8.86-1.23 13 13 0 0 1-5.62-3.7 14.2 14.2 0 0 1-3-6.07 36.49 36.49 0 0 1-.86-8.36V39.21l9.42-1.46zm29.43 0h9.42v46.29h-9.42zm65.83 0a215.66 215.66 0 0 1-9.11 24.92q-5.22 11.94-10.1 21.37h-8.35q-4.89-9.43-10.11-21.37a217.5 217.5 0 0 1-9.1-24.92h10q1.2 4.36 2.84 9.3t3.48 9.79q1.85 4.86 3.73 9.39t3.53 8.07c1.13-2.38 2.32-5.08 3.59-8.11s2.5-6.15 3.73-9.39 2.39-6.5 3.48-9.79 2-6.39 2.84-9.3z"/><path fill="#999" d="M238.9 27.57a6.26 6.26 0 0 1-4.18-1.46A4.83 4.83 0 0 1 233 22.2a4.83 4.83 0 0 1 1.72-3.91 6.71 6.71 0 0 1 8.36 0 4.86 4.86 0 0 1 1.72 3.91 4.86 4.86 0 0 1-1.72 3.91 6.26 6.26 0 0 1-4.18 1.46z"/><path fill="#333" d="M138.26 10.73a6.24 6.24 0 0 1-4.18-1.45 4.84 4.84 0 0 1-1.72-3.91 4.85 4.85 0 0 1 1.72-3.92 6.75 6.75 0 0 1 8.36 0 4.88 4.88 0 0 1 1.72 3.92 4.87 4.87 0 0 1-1.72 3.91 6.28 6.28 0 0 1-4.18 1.45zm100.64 0a6.26 6.26 0 0 1-4.18-1.45A4.84 4.84 0 0 1 233 5.37a4.85 4.85 0 0 1 1.72-3.92 6.75 6.75 0 0 1 8.36 0 4.88 4.88 0 0 1 1.72 3.92 4.87 4.87 0 0 1-1.72 3.91 6.26 6.26 0 0 1-4.18 1.45z"/><path fill="#999" d="M138.26 133.17a6.25 6.25 0 0 1-4.18-1.46 5.3 5.3 0 0 1 0-7.82 6.71 6.71 0 0 1 8.36 0 5.3 5.3 0 0 1 0 7.82 6.28 6.28 0 0 1-4.18 1.46z"/><path fill="#ccc" d="M238.9 116.33a6.26 6.26 0 0 1-4.18-1.45 5.32 5.32 0 0 1 0-7.83 6.75 6.75 0 0 1 8.36 0 5.32 5.32 0 0 1 0 7.83 6.26 6.26 0 0 1-4.18 1.45z"/><path fill="#333" d="M138.26 150a6.24 6.24 0 0 1-4.18-1.45 5.32 5.32 0 0 1 0-7.83 6.75 6.75 0 0 1 8.36 0 5.32 5.32 0 0 1 0 7.83 6.28 6.28 0 0 1-4.18 1.45z"/><path fill="#999" d="M238.9 133.17a6.26 6.26 0 0 1-4.18-1.46 5.3 5.3 0 0 1 0-7.82 6.71 6.71 0 0 1 8.36 0 5.3 5.3 0 0 1 0 7.82 6.26 6.26 0 0 1-4.18 1.46z"/></svg>