<?xml version="1.0" encoding="utf-8"?>
<!-- Generator: Adobe Illustrator 26.4.1, SVG Export Plug-In . SVG Version: 6.00 Build 0)  -->
<svg version="1.1" id="Layer_1" xmlns="http://www.w3.org/2000/svg" xmlns:xlink="http://www.w3.org/1999/xlink" x="0px" y="0px"
	 viewBox="0 0 1920 960" style="enable-background:new 0 0 1920 960;" xml:space="preserve">
<style type="text/css">
	.st0{fill:#FFFFFF;}
	.st1{fill:#333333;}
	.st2{fill:#999999;}
</style>
<path id="e" class="st0" d="M0,482.5c0-25.9,4.2-48.5,12.6-67.8c8.4-19.3,19.5-35.4,33.4-48.1c13.8-12.7,30.1-22.5,47.8-28.7
	c17.8-6.3,36.5-9.6,55.4-9.6c44.1,0,77.9,12.3,101.4,36.9c23.5,24.6,35.2,62,35.3,112.3v8.7c0,3.3-0.2,6.6-0.6,9.8H61.1
	c2.5,30.4,12.4,53.5,29.6,69.2s44.1,23.6,80.6,23.6c20.6,0,37.9-1.6,51.9-4.8c14.1-3.2,24.7-6.3,31.8-9.3l8.2,43.9
	c-7.1,3.4-19.6,6.9-37.5,10.7c-17.8,3.8-38.1,5.6-60.8,5.6c-28.6,0-53.2-3.8-74-11.5c-20.8-7.7-37.9-18.3-51.3-31.8
	c-13.5-13.5-23.7-30-29.9-48.1C3.3,525,0,504.7,0,482.5z M224.1,456c0.4-23.6-6.2-43.1-19.8-58.3c-13.6-15.2-32.4-22.8-56.3-22.8
	c-13.4,0-25.3,2.4-35.6,7.1c-9.8,4.3-18.7,10.6-26.1,18.3c-7.1,7.5-12.8,16.3-16.7,25.9c-3.9,9.5-6.6,19.6-7.9,29.8L224.1,456z"/>
<path id="m" class="st0" d="M333.8,343.8c13.5-3,31.2-6.2,53.3-9.6c22.1-3.4,47.6-5.1,76.6-5.1c21,0,38.7,2.5,53,7.6
	c14.3,5.1,26.3,12.5,36,22.2c2.9-1.9,7.6-4.5,13.9-7.9c7.5-3.9,15.3-7.2,23.3-9.9c10.1-3.4,20.5-6.2,30.9-8.4
	c12-2.5,24.3-3.7,36.6-3.7c25.2,0,45.8,3.3,61.8,9.9s28.5,15.9,37.5,27.9c9,12,15.1,26.3,18.3,42.8c3.3,17.8,4.8,35.9,4.7,54.1V628
	h-58V474.9c0-17.3-1-32.1-2.9-44.5c-1.9-12.4-5.5-22.7-10.8-31c-5.2-8.2-12.7-14.5-21.6-18.3c-9.1-3.9-20.9-5.9-35.3-5.9
	c-19.9,0-36.4,2.4-49.3,7.1c-12.9,4.7-21.7,8.9-26.4,12.6c3.5,10.4,6.1,21.2,7.6,32.1c1.7,12.1,2.6,24.4,2.5,36.6V628h-58V474.9
	c0-17.3-1.1-32.1-3.2-44.5c-2.1-12.4-5.8-22.7-11.1-31c-5.2-8.2-12.7-14.5-21.6-18.3c-9.1-3.9-20.7-5.9-34.6-5.9
	c-5.9,0-12.3,0.2-19.1,0.6c-6.8,0.4-13.2,0.8-19.4,1.4c-6.1,0.6-11.8,1.2-16.8,2c-5.1,0.8-8.5,1.3-10.2,1.7V628h-58L333.8,343.8z"/>
<rect id="i1" x="856.9" y="334" class="st0" width="58" height="294"/>
<path id="t1" class="st0" d="M1050.9,339h126v44h-126v135.1c0,14.7,1.2,26.8,3.7,36.4c2.5,9.6,6.2,17.1,11.3,22.6
	c5.1,5.5,11.6,9.5,18.8,11.6c8.5,2.4,17.4,3.5,26.3,3.4c17.5,0,31.6-1.8,42.2-5.4c10.6-3.6,18-6.1,22.2-7.6l11.3,43.5
	c-5.8,2.6-16,5.9-30.6,9.9c-14.6,4-31.3,5.9-50,5.9c-22.1,0-40.3-2.5-54.7-7.6s-25.9-12.7-34.7-22.9c-8.7-10.2-14.9-22.7-18.5-37.6
	c-3.5-14.9-5.3-32.1-5.1-51.7V257l58-9L1050.9,339z"/>
<path id="t2" class="st0" d="M1307.9,339h121v44h-121v135.1c-0.3,14.7,1,26.8,3.5,36.4c2.5,9.6,6.3,17.2,11.3,22.6
	c5.1,5.5,11.6,9.5,18.8,11.6c8.5,2.4,17.4,3.5,26.3,3.4c17.5,0,31.6-1.8,42.2-5.4c10.6-3.6,18-6.1,22.2-7.6l11.3,43.5
	c-5.8,2.6-16,5.9-30.6,9.9s-31.3,5.9-50,5.9c-22.1,0-40.3-2.5-54.7-7.6s-25.9-12.7-34.7-22.9c-8.7-10.2-14.9-22.7-18.4-37.6
	c-3.6-14.9-5.3-32.1-4.9-51.7V257l58-9L1307.9,339z"/>
<rect id="i2" x="1502" y="334" class="st0" width="58" height="294"/>
<path id="v" class="st0" d="M1920,334c-16,53.9-35.4,106.8-57.9,158.3c-22.1,50.5-43.5,95.7-64.2,135.7h-53.1
	c-20.7-40-42.1-85.2-64.2-135.7c-22.5-51.5-41.8-104.4-57.9-158.3h63.2c5.1,18.5,11,38.2,18,59.1c6.9,20.9,14.3,41.6,22.1,62.2
	c7.8,20.5,15.7,40.4,23.7,59.6s15.6,36.4,22.8,51.5c7.2-15.1,14.7-32.2,22.8-51.5c8-19.2,15.9-39.1,23.7-59.6
	c7.8-20.5,15.2-41.3,22.1-62.2c7-20.9,13-40.6,18-59.1L1920,334z"/>
<path id="dot1" class="st1" d="M885.4,68.7c-10.5,0-19.4-3.1-26.8-9.3s-11-14.5-11-25.1c0-10.5,3.7-18.8,11-25.1
	C866,3.1,874.9,0,885.4,0c10.5,0,19.4,3.1,26.8,9.3c7.4,6.2,11,14.5,11,25.1c0,10.5-3.7,18.9-11,25.1
	C904.8,65.6,895.9,68.7,885.4,68.7z"/>
<path id="dot2" class="st0" d="M887.3,284c-10.5,0-19.4-3.1-26.8-9.3c-7.3-6.2-11-14.5-11-25c0-10.5,3.7-18.9,11-25.1
	c7.3-6.2,16.3-9.3,26.8-9.3c10.5,0,19.4,3.1,26.8,9.3c7.4,6.2,11,14.5,11,25.1c0,10.5-3.7,18.8-11,25
	C906.7,280.9,897.8,284,887.3,284z"/>
<path id="dot3" class="st2" d="M885.4,852.3c-10.5,0-19.4-3.1-26.8-9.3s-11-14.5-11-25c0-10.5,3.7-18.8,11-25.1
	c7.3-6.2,16.3-9.3,26.8-9.3c10.5,0,19.4,3.1,26.8,9.3c7.4,6.2,11,14.5,11,25.1c0,10.5-3.7,18.9-11,25
	C904.8,849.1,895.9,852.2,885.4,852.3z"/>
<path id="dot4" class="st1" d="M885.4,960c-10.5,0-19.4-3.1-26.8-9.3c-7.3-6.2-11-14.5-11-25.1c0-10.5,3.7-18.9,11-25.1
	c7.3-6.2,16.3-9.3,26.8-9.3c10.5,0,19.4,3.1,26.8,9.3c7.4,6.2,11,14.5,11,25.1c0,10.5-3.7,18.9-11,25.1
	C904.8,956.9,895.9,960,885.4,960z"/>
<path id="dot5" class="st1" d="M1529.9,68.7c-10.5,0-19.4-3.1-26.8-9.3s-11-14.5-11-25.1c0-10.5,3.7-18.8,11-25.1s16.3-9.3,26.8-9.3
	c10.5,0,19.4,3.1,26.8,9.3c7.4,6.2,11,14.5,11,25.1c0,10.5-3.7,18.9-11,25.1C1549.3,65.6,1540.4,68.7,1529.9,68.7z"/>
<path id="dot6" class="st2" d="M1529.9,176.4c-10.5,0-19.4-3.1-26.8-9.3c-7.3-6.2-11-14.5-11-25.1c0-10.5,3.7-18.8,11-25
	c7.3-6.2,16.3-9.3,26.8-9.3c10.5,0,19.4,3.1,26.8,9.3c7.4,6.2,11,14.5,11,25c0,10.5-3.7,18.9-11,25.1
	C1549.3,173.3,1540.4,176.4,1529.9,176.4z"/>
<path id="dot7" class="st0" d="M1529.9,744.5c-10.5,0-19.4-3.1-26.8-9.3c-7.3-6.2-11-14.5-11-25c0-10.5,3.7-18.9,11-25.1
	c7.3-6.2,16.3-9.3,26.8-9.3c10.5,0,19.4,3.1,26.8,9.3c7.4,6.2,11,14.5,11,25.1c0,10.5-3.7,18.9-11,25
	C1549.3,741.4,1540.4,744.5,1529.9,744.5z"/>
<path id="dot8" class="st2" d="M1529.9,852.3c-10.5,0-19.4-3.1-26.8-9.3s-11-14.5-11-25c0-10.5,3.7-18.8,11-25.1
	c7.3-6.2,16.3-9.3,26.8-9.3c10.5,0,19.4,3.1,26.8,9.3c7.4,6.2,11,14.5,11,25.1c0,10.5-3.7,18.9-11,25
	C1549.3,849.1,1540.4,852.2,1529.9,852.3z"/>
</svg>
