<?xml version="1.0" encoding="UTF-8"?>
<svg id="Layer_1" data-name="Layer 1" xmlns="http://www.w3.org/2000/svg" viewBox="0 0 395.5 420">
  <defs>
    <style>
      .cls-1 {
        fill: #fff;
      }
    </style>
  </defs>
  <path class="cls-1" d="M0,211.15c0-35.44,5.8-66.39,17.42-92.86,11.61-26.46,27-48.42,46.17-65.89,19.17-17.46,41.22-30.55,66.21-39.3C154.76,4.37,180.33,0,206.46,0c60.99,0,107.72,16.83,140.26,50.47,32.52,33.66,48.78,84.91,48.78,153.74v11.95c0,4.88-.3,9.38-.87,13.48H84.5c3.49,41.61,17.12,73.21,40.94,94.78,23.81,21.58,60.99,32.37,111.51,32.37,28.45,0,52.41-2.17,71.87-6.55,19.45-4.36,34.12-8.59,43.99-12.71l11.33,60.11c-9.89,4.62-27.16,9.51-51.83,14.63-24.7,5.13-52.71,7.71-84.07,7.71-39.5,0-73.62-5.28-102.36-15.8-28.74-10.53-52.42-25.04-70.99-43.53-18.59-18.5-32.39-40.46-41.38-65.89C4.49,269.34,0,241.47,0,211.15Zm310.92-35.14c.56-32.36-8.58-58.95-27.45-79.76-18.88-20.8-44.86-31.21-77.96-31.21-18.59,0-34.99,3.22-49.22,9.64-14.24,6.43-26.29,14.78-36.15,25.04-9.88,10.29-17.57,22.1-23.08,35.45-5.53,13.36-9.15,26.97-10.89,40.84h224.76Z"/>
</svg>